<?xml version="1.0" encoding="UTF-8" standalone="no"?>
<!DOCTYPE svg PUBLIC "-//W3C//DTD SVG 1.1//EN"
 "http://www.w3.org/Graphics/SVG/1.1/DTD/svg11.dtd">
<!-- Generated by graphviz version 2.47.0 (20210316.0004)
 -->
<!-- Title: dependencies Pages: 1 -->
<svg width="548pt" height="222pt"
 viewBox="0.00 0.00 548.00 222.00" xmlns="http://www.w3.org/2000/svg" xmlns:xlink="http://www.w3.org/1999/xlink">
<g id="graph0" class="graph" transform="scale(1 1) rotate(0) translate(4 218)">
<title>dependencies</title>
<polygon fill="white" stroke="transparent" points="-4,4 -4,-218 544,-218 544,4 -4,4"/>
<text text-anchor="start" x="249.01" y="-42.4" font-family="Times-12" font-weight="bold" font-size="14.00">Legend</text>
<polygon fill="#ffffb3" stroke="transparent" points="36,-10 36,-30 56,-30 56,-10 36,-10"/>
<text text-anchor="start" x="59.63" y="-15.4" font-family="Times-12" font-size="14.00"> &#160;Declarations</text>
<polygon fill="#8dd3c7" stroke="transparent" points="149,-10 149,-30 169,-30 169,-10 149,-10"/>
<text text-anchor="start" x="172.73" y="-15.4" font-family="Times-12" font-size="14.00"> &#160;Module</text>
<polygon fill="#80b1d3" stroke="transparent" points="235,-10 235,-30 255,-30 255,-10 235,-10"/>
<text text-anchor="start" x="258.78" y="-15.4" font-family="Times-12" font-size="14.00"> &#160;Bootstrap</text>
<polygon fill="#fdb462" stroke="transparent" points="332,-10 332,-30 352,-30 352,-10 332,-10"/>
<text text-anchor="start" x="355.67" y="-15.4" font-family="Times-12" font-size="14.00"> &#160;Providers</text>
<polygon fill="#fb8072" stroke="transparent" points="428,-10 428,-30 448,-30 448,-10 428,-10"/>
<text text-anchor="start" x="451.73" y="-15.4" font-family="Times-12" font-size="14.00"> &#160;Exports</text>
<g id="clust1" class="cluster">
<title>cluster_AppModule</title>
<polygon fill="none" stroke="black" stroke-dasharray="1,5" points="8,-70 8,-198 264,-198 264,-70 8,-70"/>
</g>
<g id="clust3" class="cluster">
<title>cluster_AppModule_imports</title>
<polygon fill="none" stroke="black" points="16,-78 16,-130 256,-130 256,-78 16,-78"/>
</g>
<g id="clust13" class="cluster">
<title>cluster_UserModule</title>
<polygon fill="none" stroke="black" stroke-dasharray="1,5" points="272,-138 272,-206 532,-206 532,-138 272,-138"/>
</g>
<g id="clust16" class="cluster">
<title>cluster_UserModule_exports</title>
<polygon fill="none" stroke="black" points="420,-146 420,-198 524,-198 524,-146 420,-146"/>
</g>
<g id="clust18" class="cluster">
<title>cluster_UserModule_providers</title>
<polygon fill="none" stroke="black" points="280,-146 280,-198 412,-198 412,-146 280,-146"/>
</g>
<!-- MongoDBModule -->
<g id="node1" class="node">
<title>MongoDBModule</title>
<polygon fill="#8dd3c7" stroke="black" points="143.94,-122 140.94,-126 119.94,-126 116.94,-122 24.06,-122 24.06,-86 143.94,-86 143.94,-122"/>
<text text-anchor="middle" x="84" y="-99.8" font-family="Times,serif" font-size="14.00">MongoDBModule</text>
</g>
<!-- AppModule -->
<g id="node3" class="node">
<title>AppModule</title>
<polygon fill="#8dd3c7" stroke="black" points="185.66,-190 182.66,-194 161.66,-194 158.66,-190 102.34,-190 102.34,-154 185.66,-154 185.66,-190"/>
<text text-anchor="middle" x="144" y="-167.8" font-family="Times,serif" font-size="14.00">AppModule</text>
</g>
<!-- MongoDBModule&#45;&gt;AppModule -->
<g id="edge1" class="edge">
<title>MongoDBModule&#45;&gt;AppModule</title>
<path fill="none" stroke="black" d="M122.95,-122.22C122.95,-122.22 122.95,-143.73 122.95,-143.73"/>
<polygon fill="black" stroke="black" points="119.45,-143.73 122.95,-153.73 126.45,-143.73 119.45,-143.73"/>
</g>
<!-- UserModule -->
<g id="node2" class="node">
<title>UserModule</title>
<polygon fill="#8dd3c7" stroke="black" points="247.98,-122 244.98,-126 223.98,-126 220.98,-122 162.02,-122 162.02,-86 247.98,-86 247.98,-122"/>
<text text-anchor="middle" x="205" y="-99.8" font-family="Times,serif" font-size="14.00">UserModule</text>
</g>
<!-- UserModule&#45;&gt;AppModule -->
<g id="edge2" class="edge">
<title>UserModule&#45;&gt;AppModule</title>
<path fill="none" stroke="black" d="M173.92,-122.22C173.92,-122.22 173.92,-143.73 173.92,-143.73"/>
<polygon fill="black" stroke="black" points="170.42,-143.73 173.92,-153.73 177.42,-143.73 170.42,-143.73"/>
</g>
<!-- UserService  -->
<g id="node4" class="node">
<title>UserService </title>
<polygon fill="#fb8072" stroke="black" points="515.9,-190 428.1,-190 428.1,-154 515.9,-154 515.9,-190"/>
<text text-anchor="middle" x="472" y="-167.8" font-family="Times,serif" font-size="14.00">UserService </text>
</g>
<!-- UserModule&#45;&gt;UserService  -->
<g id="edge3" class="edge">
<title>UserModule&#45;&gt;UserService </title>
<path fill="none" stroke="black" stroke-dasharray="5,2" d="M248.19,-104C323.76,-104 472,-104 472,-104 472,-104 472,-143.78 472,-143.78"/>
<polygon fill="black" stroke="black" points="468.5,-143.78 472,-153.78 475.5,-143.78 468.5,-143.78"/>
</g>
<!-- UserService -->
<g id="node5" class="node">
<title>UserService</title>
<ellipse fill="#fdb462" stroke="black" cx="346" cy="-172" rx="58.44" ry="18"/>
<text text-anchor="middle" x="346" y="-167.8" font-family="Times,serif" font-size="14.00">UserService</text>
</g>
<!-- UserService&#45;&gt;UserModule -->
<g id="edge4" class="edge">
<title>UserService&#45;&gt;UserModule</title>
<path fill="none" stroke="black" d="M287.5,-172C253.34,-172 216.91,-172 216.91,-172 216.91,-172 216.91,-132.22 216.91,-132.22"/>
<polygon fill="black" stroke="black" points="220.41,-132.22 216.91,-122.22 213.41,-132.22 220.41,-132.22"/>
</g>
</g>
</svg>
