<?xml version="1.0" encoding="UTF-8" standalone="no"?>
<!DOCTYPE svg PUBLIC "-//W3C//DTD SVG 1.1//EN"
 "http://www.w3.org/Graphics/SVG/1.1/DTD/svg11.dtd">
<!-- Generated by graphviz version 2.47.0 (20210316.0004)
 -->
<!-- Title: dependencies Pages: 1 -->
<svg width="688pt" height="222pt"
 viewBox="0.00 0.00 688.00 222.00" xmlns="http://www.w3.org/2000/svg" xmlns:xlink="http://www.w3.org/1999/xlink">
<g id="graph0" class="graph" transform="scale(1 1) rotate(0) translate(4 218)">
<title>dependencies</title>
<polygon fill="white" stroke="transparent" points="-4,4 -4,-218 684,-218 684,4 -4,4"/>
<text text-anchor="start" x="319.01" y="-42.4" font-family="Times-12" font-weight="bold" font-size="14.00">Legend</text>
<polygon fill="#ffffb3" stroke="transparent" points="106,-10 106,-30 126,-30 126,-10 106,-10"/>
<text text-anchor="start" x="129.63" y="-15.4" font-family="Times-12" font-size="14.00"> &#160;Declarations</text>
<polygon fill="#8dd3c7" stroke="transparent" points="219,-10 219,-30 239,-30 239,-10 219,-10"/>
<text text-anchor="start" x="242.73" y="-15.4" font-family="Times-12" font-size="14.00"> &#160;Module</text>
<polygon fill="#80b1d3" stroke="transparent" points="305,-10 305,-30 325,-30 325,-10 305,-10"/>
<text text-anchor="start" x="328.78" y="-15.4" font-family="Times-12" font-size="14.00"> &#160;Bootstrap</text>
<polygon fill="#fdb462" stroke="transparent" points="402,-10 402,-30 422,-30 422,-10 402,-10"/>
<text text-anchor="start" x="425.67" y="-15.4" font-family="Times-12" font-size="14.00"> &#160;Providers</text>
<polygon fill="#fb8072" stroke="transparent" points="498,-10 498,-30 518,-30 518,-10 498,-10"/>
<text text-anchor="start" x="521.73" y="-15.4" font-family="Times-12" font-size="14.00"> &#160;Exports</text>
<g id="clust1" class="cluster">
<title>cluster_AppModule</title>
<polygon fill="none" stroke="black" stroke-dasharray="1,5" points="8,-70 8,-198 404,-198 404,-70 8,-70"/>
</g>
<g id="clust3" class="cluster">
<title>cluster_AppModule_imports</title>
<polygon fill="none" stroke="black" points="16,-78 16,-130 396,-130 396,-78 16,-78"/>
</g>
<g id="clust19" class="cluster">
<title>cluster_UserModule</title>
<polygon fill="none" stroke="black" stroke-dasharray="1,5" points="412,-138 412,-206 672,-206 672,-138 412,-138"/>
</g>
<g id="clust22" class="cluster">
<title>cluster_UserModule_exports</title>
<polygon fill="none" stroke="black" points="560,-146 560,-198 664,-198 664,-146 560,-146"/>
</g>
<g id="clust24" class="cluster">
<title>cluster_UserModule_providers</title>
<polygon fill="none" stroke="black" points="420,-146 420,-198 552,-198 552,-146 420,-146"/>
</g>
<!-- ChallengesModule -->
<g id="node1" class="node">
<title>ChallengesModule</title>
<polygon fill="#8dd3c7" stroke="black" points="283.76,-122 280.76,-126 259.76,-126 256.76,-122 162.24,-122 162.24,-86 283.76,-86 283.76,-122"/>
<text text-anchor="middle" x="223" y="-99.8" font-family="Times,serif" font-size="14.00">ChallengesModule</text>
</g>
<!-- AppModule -->
<g id="node4" class="node">
<title>AppModule</title>
<polygon fill="#8dd3c7" stroke="black" points="264.66,-190 261.66,-194 240.66,-194 237.66,-190 181.34,-190 181.34,-154 264.66,-154 264.66,-190"/>
<text text-anchor="middle" x="223" y="-167.8" font-family="Times,serif" font-size="14.00">AppModule</text>
</g>
<!-- ChallengesModule&#45;&gt;AppModule -->
<g id="edge1" class="edge">
<title>ChallengesModule&#45;&gt;AppModule</title>
<path fill="none" stroke="black" d="M223,-122.22C223,-122.22 223,-143.73 223,-143.73"/>
<polygon fill="black" stroke="black" points="219.5,-143.73 223,-153.73 226.5,-143.73 219.5,-143.73"/>
</g>
<!-- MongoDBModule -->
<g id="node2" class="node">
<title>MongoDBModule</title>
<polygon fill="#8dd3c7" stroke="black" points="143.94,-122 140.94,-126 119.94,-126 116.94,-122 24.06,-122 24.06,-86 143.94,-86 143.94,-122"/>
<text text-anchor="middle" x="84" y="-99.8" font-family="Times,serif" font-size="14.00">MongoDBModule</text>
</g>
<!-- MongoDBModule&#45;&gt;AppModule -->
<g id="edge2" class="edge">
<title>MongoDBModule&#45;&gt;AppModule</title>
<path fill="none" stroke="black" d="M84,-122.22C84,-142.37 84,-172 84,-172 84,-172 171.3,-172 171.3,-172"/>
<polygon fill="black" stroke="black" points="171.3,-175.5 181.3,-172 171.3,-168.5 171.3,-175.5"/>
</g>
<!-- UserModule -->
<g id="node3" class="node">
<title>UserModule</title>
<polygon fill="#8dd3c7" stroke="black" points="387.98,-122 384.98,-126 363.98,-126 360.98,-122 302.02,-122 302.02,-86 387.98,-86 387.98,-122"/>
<text text-anchor="middle" x="345" y="-99.8" font-family="Times,serif" font-size="14.00">UserModule</text>
</g>
<!-- UserModule&#45;&gt;AppModule -->
<g id="edge3" class="edge">
<title>UserModule&#45;&gt;AppModule</title>
<path fill="none" stroke="black" d="M330.67,-122.29C330.67,-144.21 330.67,-178 330.67,-178 330.67,-178 274.94,-178 274.94,-178"/>
<polygon fill="black" stroke="black" points="274.94,-174.5 264.94,-178 274.94,-181.5 274.94,-174.5"/>
</g>
<!-- UserService  -->
<g id="node5" class="node">
<title>UserService </title>
<polygon fill="#fb8072" stroke="black" points="655.9,-190 568.1,-190 568.1,-154 655.9,-154 655.9,-190"/>
<text text-anchor="middle" x="612" y="-167.8" font-family="Times,serif" font-size="14.00">UserService </text>
</g>
<!-- UserModule&#45;&gt;UserService  -->
<g id="edge4" class="edge">
<title>UserModule&#45;&gt;UserService </title>
<path fill="none" stroke="black" stroke-dasharray="5,2" d="M388.19,-104C463.76,-104 612,-104 612,-104 612,-104 612,-143.78 612,-143.78"/>
<polygon fill="black" stroke="black" points="608.5,-143.78 612,-153.78 615.5,-143.78 608.5,-143.78"/>
</g>
<!-- UserService -->
<g id="node6" class="node">
<title>UserService</title>
<ellipse fill="#fdb462" stroke="black" cx="486" cy="-172" rx="58.44" ry="18"/>
<text text-anchor="middle" x="486" y="-167.8" font-family="Times,serif" font-size="14.00">UserService</text>
</g>
<!-- UserService&#45;&gt;UserModule -->
<g id="edge5" class="edge">
<title>UserService&#45;&gt;UserModule</title>
<path fill="none" stroke="black" d="M430.81,-166C396.67,-166 359.33,-166 359.33,-166 359.33,-166 359.33,-132.27 359.33,-132.27"/>
<polygon fill="black" stroke="black" points="362.83,-132.27 359.33,-122.27 355.83,-132.27 362.83,-132.27"/>
</g>
</g>
</svg>
